<?xml version="1.0" encoding="UTF-8"?>
<!DOCTYPE svg PUBLIC "-//W3C//DTD SVG 1.1//EN" "http://www.w3.org/Graphics/SVG/1.1/DTD/svg11.dtd">
<svg version="1.2" width="100.01mm" height="100.01mm" viewBox="5500 9850 10001 10001" preserveAspectRatio="xMidYMid" fill-rule="evenodd" stroke-width="28.222" stroke-linejoin="round" xmlns="http://www.w3.org/2000/svg" xmlns:ooo="http://xml.openoffice.org/svg/export" xmlns:xlink="http://www.w3.org/1999/xlink" xmlns:presentation="http://sun.com/xmlns/staroffice/presentation" xmlns:smil="http://www.w3.org/2001/SMIL20/" xmlns:anim="urn:oasis:names:tc:opendocument:xmlns:animation:1.0" xmlns:svg="urn:oasis:names:tc:opendocument:xmlns:svg-compatible:1.0" xml:space="preserve">
 <defs class="EmbeddedBulletChars">
  <g id="bullet-char-template-57356" transform="scale(0.00048828125,-0.00048828125)">
   <path d="M 580,1141 L 1163,571 580,0 -4,571 580,1141 Z"/>
  </g>
  <g id="bullet-char-template-57354" transform="scale(0.00048828125,-0.00048828125)">
   <path d="M 8,1128 L 1137,1128 1137,0 8,0 8,1128 Z"/>
  </g>
  <g id="bullet-char-template-10146" transform="scale(0.00048828125,-0.00048828125)">
   <path d="M 174,0 L 602,739 174,1481 1456,739 174,0 Z M 1358,739 L 309,1346 659,739 1358,739 Z"/>
  </g>
  <g id="bullet-char-template-10132" transform="scale(0.00048828125,-0.00048828125)">
   <path d="M 2015,739 L 1276,0 717,0 1260,543 174,543 174,936 1260,936 717,1481 1274,1481 2015,739 Z"/>
  </g>
  <g id="bullet-char-template-10007" transform="scale(0.00048828125,-0.00048828125)">
   <path d="M 0,-2 C -7,14 -16,27 -25,37 L 356,567 C 262,823 215,952 215,954 215,979 228,992 255,992 264,992 276,990 289,987 310,991 331,999 354,1012 L 381,999 492,748 772,1049 836,1024 860,1049 C 881,1039 901,1025 922,1006 886,937 835,863 770,784 769,783 710,716 594,584 L 774,223 C 774,196 753,168 711,139 L 727,119 C 717,90 699,76 672,76 641,76 570,178 457,381 L 164,-76 C 142,-110 111,-127 72,-127 30,-127 9,-110 8,-76 1,-67 -2,-52 -2,-32 -2,-23 -1,-13 0,-2 Z"/>
  </g>
  <g id="bullet-char-template-10004" transform="scale(0.00048828125,-0.00048828125)">
   <path d="M 285,-33 C 182,-33 111,30 74,156 52,228 41,333 41,471 41,549 55,616 82,672 116,743 169,778 240,778 293,778 328,747 346,684 L 369,508 C 377,444 397,411 428,410 L 1163,1116 C 1174,1127 1196,1133 1229,1133 1271,1133 1292,1118 1292,1087 L 1292,965 C 1292,929 1282,901 1262,881 L 442,47 C 390,-6 338,-33 285,-33 Z"/>
  </g>
  <g id="bullet-char-template-9679" transform="scale(0.00048828125,-0.00048828125)">
   <path d="M 813,0 C 632,0 489,54 383,161 276,268 223,411 223,592 223,773 276,916 383,1023 489,1130 632,1184 813,1184 992,1184 1136,1130 1245,1023 1353,916 1407,772 1407,592 1407,412 1353,268 1245,161 1136,54 992,0 813,0 Z"/>
  </g>
  <g id="bullet-char-template-8226" transform="scale(0.00048828125,-0.00048828125)">
   <path d="M 346,457 C 273,457 209,483 155,535 101,586 74,649 74,723 74,796 101,859 155,911 209,963 273,989 346,989 419,989 480,963 531,910 582,859 608,796 608,723 608,648 583,586 532,535 482,483 420,457 346,457 Z"/>
  </g>
  <g id="bullet-char-template-8211" transform="scale(0.00048828125,-0.00048828125)">
   <path d="M -4,459 L 1135,459 1135,606 -4,606 -4,459 Z"/>
  </g>
  <g id="bullet-char-template-61548" transform="scale(0.00048828125,-0.00048828125)">
   <path d="M 173,740 C 173,903 231,1043 346,1159 462,1274 601,1332 765,1332 928,1332 1067,1274 1183,1159 1299,1043 1357,903 1357,740 1357,577 1299,437 1183,322 1067,206 928,148 765,148 601,148 462,206 346,322 231,437 173,577 173,740 Z"/>
  </g>
 </defs>
 <g class="Page">
  <g class="Group">
   <g class="com.sun.star.drawing.CustomShape">
    <g id="id3">
     <rect class="BoundingBox" stroke="none" fill="none" x="5500" y="9850" width="10001" height="10001"/>
    </g>
   </g>
   <g class="com.sun.star.drawing.ClosedBezierShape">
    <g id="id4">
     <rect class="BoundingBox" stroke="none" fill="none" x="6000" y="10350" width="9002" height="9002"/>
     <path fill="rgb(210,174,38)" stroke="none" d="M 8000,12917 C 7924,12961 7861,13024 7817,13100 7773,13176 7750,13263 7750,13351 7750,13438 7773,13525 7817,13601 7861,13677 7924,13740 8000,13784 8076,13828 8163,13851 8251,13851 L 12750,13851 12751,13851 C 12838,13851 12925,13828 13001,13784 13077,13740 13140,13677 13184,13601 13228,13525 13251,13438 13251,13351 13251,13263 13228,13176 13184,13100 13140,13024 13077,12961 13001,12917 12925,12873 12838,12850 12751,12850 L 8251,12850 C 8163,12850 8076,12873 8000,12917 Z M 8000,15917 C 7924,15961 7861,16024 7817,16100 7773,16176 7750,16263 7750,16351 7750,16438 7773,16525 7817,16601 7861,16677 7924,16740 8000,16784 8076,16828 8163,16851 8251,16851 L 12750,16851 12751,16851 C 12838,16851 12925,16828 13001,16784 13077,16740 13140,16677 13184,16601 13228,16525 13251,16438 13251,16351 13251,16263 13228,16176 13184,16100 13140,16024 13077,15961 13001,15917 12925,15873 12838,15850 12751,15850 L 8251,15850 C 8163,15850 8076,15873 8000,15917 Z M 8000,14417 C 7924,14461 7861,14524 7817,14600 7773,14676 7750,14763 7750,14851 7750,14938 7773,15025 7817,15101 7861,15177 7924,15240 8000,15284 8076,15328 8163,15351 8251,15351 L 12750,15351 12751,15351 C 12838,15351 12925,15328 13001,15284 13077,15240 13140,15177 13184,15101 13228,15025 13251,14938 13251,14851 13251,14763 13228,14676 13184,14600 13140,14524 13077,14461 13001,14417 12925,14373 12838,14350 12751,14350 L 8251,14350 C 8163,14350 8076,14373 8000,14417 Z M 14398,17101 C 14003,17785 13435,18353 12751,18748 12067,19143 11291,19351 10501,19351 9710,19351 8934,19143 8250,18748 7566,18353 6998,17785 6603,17101 6208,16417 6000,15641 6000,14851 6000,14060 6208,13284 6603,12600 6998,11916 7566,11348 8250,10953 8934,10558 9710,10350 10500,10350 11291,10350 12067,10558 12751,10953 13435,11348 14003,11916 14398,12600 14793,13284 15001,14060 15001,14851 15001,15641 14793,16417 14398,17101 Z"/>
    </g>
   </g>
  </g>
 </g>
</svg>