<?xml version="1.0" encoding="UTF-8"?>
<!DOCTYPE svg PUBLIC "-//W3C//DTD SVG 1.1//EN" "http://www.w3.org/Graphics/SVG/1.1/DTD/svg11.dtd">
<svg version="1.2" width="150.01mm" height="150.01mm" viewBox="3000 7350 15001 15001" preserveAspectRatio="xMidYMid" fill-rule="evenodd" stroke-width="28.222" stroke-linejoin="round" xmlns="http://www.w3.org/2000/svg" xmlns:ooo="http://xml.openoffice.org/svg/export" xmlns:xlink="http://www.w3.org/1999/xlink" xmlns:presentation="http://sun.com/xmlns/staroffice/presentation" xmlns:smil="http://www.w3.org/2001/SMIL20/" xmlns:anim="urn:oasis:names:tc:opendocument:xmlns:animation:1.0" xmlns:svg="urn:oasis:names:tc:opendocument:xmlns:svg-compatible:1.0" xml:space="preserve">
 <defs class="EmbeddedBulletChars">
  <g id="bullet-char-template-57356" transform="scale(0.00048828125,-0.00048828125)">
   <path d="M 580,1141 L 1163,571 580,0 -4,571 580,1141 Z"/>
  </g>
  <g id="bullet-char-template-57354" transform="scale(0.00048828125,-0.00048828125)">
   <path d="M 8,1128 L 1137,1128 1137,0 8,0 8,1128 Z"/>
  </g>
  <g id="bullet-char-template-10146" transform="scale(0.00048828125,-0.00048828125)">
   <path d="M 174,0 L 602,739 174,1481 1456,739 174,0 Z M 1358,739 L 309,1346 659,739 1358,739 Z"/>
  </g>
  <g id="bullet-char-template-10132" transform="scale(0.00048828125,-0.00048828125)">
   <path d="M 2015,739 L 1276,0 717,0 1260,543 174,543 174,936 1260,936 717,1481 1274,1481 2015,739 Z"/>
  </g>
  <g id="bullet-char-template-10007" transform="scale(0.00048828125,-0.00048828125)">
   <path d="M 0,-2 C -7,14 -16,27 -25,37 L 356,567 C 262,823 215,952 215,954 215,979 228,992 255,992 264,992 276,990 289,987 310,991 331,999 354,1012 L 381,999 492,748 772,1049 836,1024 860,1049 C 881,1039 901,1025 922,1006 886,937 835,863 770,784 769,783 710,716 594,584 L 774,223 C 774,196 753,168 711,139 L 727,119 C 717,90 699,76 672,76 641,76 570,178 457,381 L 164,-76 C 142,-110 111,-127 72,-127 30,-127 9,-110 8,-76 1,-67 -2,-52 -2,-32 -2,-23 -1,-13 0,-2 Z"/>
  </g>
  <g id="bullet-char-template-10004" transform="scale(0.00048828125,-0.00048828125)">
   <path d="M 285,-33 C 182,-33 111,30 74,156 52,228 41,333 41,471 41,549 55,616 82,672 116,743 169,778 240,778 293,778 328,747 346,684 L 369,508 C 377,444 397,411 428,410 L 1163,1116 C 1174,1127 1196,1133 1229,1133 1271,1133 1292,1118 1292,1087 L 1292,965 C 1292,929 1282,901 1262,881 L 442,47 C 390,-6 338,-33 285,-33 Z"/>
  </g>
  <g id="bullet-char-template-9679" transform="scale(0.00048828125,-0.00048828125)">
   <path d="M 813,0 C 632,0 489,54 383,161 276,268 223,411 223,592 223,773 276,916 383,1023 489,1130 632,1184 813,1184 992,1184 1136,1130 1245,1023 1353,916 1407,772 1407,592 1407,412 1353,268 1245,161 1136,54 992,0 813,0 Z"/>
  </g>
  <g id="bullet-char-template-8226" transform="scale(0.00048828125,-0.00048828125)">
   <path d="M 346,457 C 273,457 209,483 155,535 101,586 74,649 74,723 74,796 101,859 155,911 209,963 273,989 346,989 419,989 480,963 531,910 582,859 608,796 608,723 608,648 583,586 532,535 482,483 420,457 346,457 Z"/>
  </g>
  <g id="bullet-char-template-8211" transform="scale(0.00048828125,-0.00048828125)">
   <path d="M -4,459 L 1135,459 1135,606 -4,606 -4,459 Z"/>
  </g>
  <g id="bullet-char-template-61548" transform="scale(0.00048828125,-0.00048828125)">
   <path d="M 173,740 C 173,903 231,1043 346,1159 462,1274 601,1332 765,1332 928,1332 1067,1274 1183,1159 1299,1043 1357,903 1357,740 1357,577 1299,437 1183,322 1067,206 928,148 765,148 601,148 462,206 346,322 231,437 173,577 173,740 Z"/>
  </g>
 </defs>
 <g class="Page">
  <g class="Group">
   <g class="Group">
    <g class="com.sun.star.drawing.ClosedBezierShape">
     <g id="id3">
      <rect class="BoundingBox" stroke="none" fill="none" x="9178" y="18119" width="2449" height="2452"/>
      <path fill="rgb(218,200,91)" stroke="none" d="M 11625,19344 C 11625,19559 11569,19770 11461,19956 11354,20143 11199,20298 11013,20405 10827,20513 10617,20569 10404,20569 10188,20569 9977,20513 9791,20405 9605,20298 9450,20143 9343,19956 9235,19770 9179,19559 9179,19344 9179,19129 9235,18918 9343,18732 9450,18545 9605,18391 9791,18283 9977,18176 10188,18119 10404,18119 10616,18119 10827,18176 11013,18283 11199,18391 11354,18545 11461,18732 11569,18918 11625,19129 11625,19344 Z"/>
     </g>
    </g>
    <g class="com.sun.star.drawing.ClosedBezierShape">
     <g id="id4">
      <rect class="BoundingBox" stroke="none" fill="none" x="9694" y="9131" width="1433" height="1191"/>
      <path fill="rgb(218,200,91)" stroke="none" d="M 11125,9727 C 11125,9831 11092,9934 11030,10024 10967,10114 10876,10189 10767,10242 10659,10294 10535,10321 10411,10321 10286,10321 10161,10294 10053,10242 9944,10189 9853,10114 9790,10024 9728,9934 9695,9831 9695,9727 9695,9622 9728,9520 9790,9429 9853,9339 9944,9264 10053,9212 10161,9160 10285,9132 10411,9132 10536,9132 10659,9160 10767,9212 10876,9264 10967,9339 11030,9429 11092,9520 11125,9622 11125,9727 Z"/>
     </g>
    </g>
    <g class="com.sun.star.drawing.ClosedBezierShape">
     <g id="id5">
      <rect class="BoundingBox" stroke="none" fill="none" x="5126" y="9820" width="10751" height="9501"/>
      <path fill="rgb(218,200,91)" stroke="none" d="M 15875,18954 L 15875,18223 C 15875,18223 14083,17126 14083,14571 14083,10369 11396,9821 10501,9821 9607,9821 6919,10369 6919,14571 6919,17126 5127,18223 5127,18223 L 5127,18954 5127,18954 C 5127,19017 5144,19081 5175,19137 5207,19192 5251,19238 5306,19270 5361,19302 5423,19319 5486,19319 L 15516,19319 15516,19319 C 15579,19319 15641,19302 15696,19270 15751,19238 15795,19192 15827,19137 15858,19081 15875,19017 15875,18954 Z"/>
     </g>
    </g>
    <g class="com.sun.star.drawing.ClosedBezierShape">
     <g id="id6">
      <rect class="BoundingBox" stroke="none" fill="none" x="4376" y="18294" width="12249" height="1227"/>
      <path fill="rgb(189,157,80)" stroke="none" d="M 4377,18294 L 16623,18294 16623,19111 16623,19111 C 16623,19182 16604,19253 16568,19315 16532,19377 16482,19428 16419,19464 16357,19500 16286,19519 16214,19519 L 4786,19519 4786,19519 C 4714,19519 4643,19500 4581,19464 4518,19428 4468,19377 4432,19315 4396,19253 4377,19182 4377,19111 L 4377,18294 Z"/>
     </g>
    </g>
    <g class="com.sun.star.drawing.ClosedBezierShape">
     <g id="id7">
      <rect class="BoundingBox" stroke="none" fill="none" x="11937" y="10301" width="1840" height="2589"/>
      <path fill="rgb(189,157,80)" stroke="none" d="M 13469,12862 C 13438,12844 13412,12818 13394,12787 13385,12771 13377,12753 13373,12735 13134,11797 12682,11104 12030,10677 12003,10659 11981,10636 11965,10608 11947,10577 11937,10542 11937,10506 11937,10470 11947,10435 11965,10404 11983,10373 12009,10347 12040,10329 12072,10311 12107,10302 12142,10302 12178,10302 12213,10311 12244,10329 12247,10331 12250,10333 12254,10335 12994,10821 13504,11594 13769,12634 13773,12651 13775,12668 13775,12685 13775,12721 13766,12756 13748,12787 13731,12818 13704,12844 13673,12862 13642,12879 13607,12889 13571,12889 L 13571,12889 C 13535,12889 13500,12879 13469,12862 Z"/>
     </g>
    </g>
    <g class="com.sun.star.drawing.PolyPolygonShape">
     <g id="id8">
      <rect class="BoundingBox" stroke="none" fill="none" x="13571" y="13276" width="410" height="410"/>
      <path fill="rgb(189,157,80)" stroke="none" d="M 13571,13277 L 13979,13277 13979,13685 13571,13685 13571,13277 Z"/>
     </g>
    </g>
   </g>
   <g class="com.sun.star.drawing.CustomShape">
    <g id="id9">
     <rect class="BoundingBox" stroke="none" fill="none" x="3000" y="7350" width="15001" height="15001"/>
    </g>
   </g>
  </g>
 </g>
</svg>