<?xml version="1.0" encoding="UTF-8"?>
<!DOCTYPE svg PUBLIC "-//W3C//DTD SVG 1.1//EN" "http://www.w3.org/Graphics/SVG/1.1/DTD/svg11.dtd">
<svg version="1.2" width="150.01mm" height="150.01mm" viewBox="3000 7350 15001 15001" preserveAspectRatio="xMidYMid" fill-rule="evenodd" stroke-width="28.222" stroke-linejoin="round" xmlns="http://www.w3.org/2000/svg" xmlns:ooo="http://xml.openoffice.org/svg/export" xmlns:xlink="http://www.w3.org/1999/xlink" xmlns:presentation="http://sun.com/xmlns/staroffice/presentation" xmlns:smil="http://www.w3.org/2001/SMIL20/" xmlns:anim="urn:oasis:names:tc:opendocument:xmlns:animation:1.0" xmlns:svg="urn:oasis:names:tc:opendocument:xmlns:svg-compatible:1.0" xml:space="preserve">
 <defs class="EmbeddedBulletChars">
  <g id="bullet-char-template-57356" transform="scale(0.00048828125,-0.00048828125)">
   <path d="M 580,1141 L 1163,571 580,0 -4,571 580,1141 Z"/>
  </g>
  <g id="bullet-char-template-57354" transform="scale(0.00048828125,-0.00048828125)">
   <path d="M 8,1128 L 1137,1128 1137,0 8,0 8,1128 Z"/>
  </g>
  <g id="bullet-char-template-10146" transform="scale(0.00048828125,-0.00048828125)">
   <path d="M 174,0 L 602,739 174,1481 1456,739 174,0 Z M 1358,739 L 309,1346 659,739 1358,739 Z"/>
  </g>
  <g id="bullet-char-template-10132" transform="scale(0.00048828125,-0.00048828125)">
   <path d="M 2015,739 L 1276,0 717,0 1260,543 174,543 174,936 1260,936 717,1481 1274,1481 2015,739 Z"/>
  </g>
  <g id="bullet-char-template-10007" transform="scale(0.00048828125,-0.00048828125)">
   <path d="M 0,-2 C -7,14 -16,27 -25,37 L 356,567 C 262,823 215,952 215,954 215,979 228,992 255,992 264,992 276,990 289,987 310,991 331,999 354,1012 L 381,999 492,748 772,1049 836,1024 860,1049 C 881,1039 901,1025 922,1006 886,937 835,863 770,784 769,783 710,716 594,584 L 774,223 C 774,196 753,168 711,139 L 727,119 C 717,90 699,76 672,76 641,76 570,178 457,381 L 164,-76 C 142,-110 111,-127 72,-127 30,-127 9,-110 8,-76 1,-67 -2,-52 -2,-32 -2,-23 -1,-13 0,-2 Z"/>
  </g>
  <g id="bullet-char-template-10004" transform="scale(0.00048828125,-0.00048828125)">
   <path d="M 285,-33 C 182,-33 111,30 74,156 52,228 41,333 41,471 41,549 55,616 82,672 116,743 169,778 240,778 293,778 328,747 346,684 L 369,508 C 377,444 397,411 428,410 L 1163,1116 C 1174,1127 1196,1133 1229,1133 1271,1133 1292,1118 1292,1087 L 1292,965 C 1292,929 1282,901 1262,881 L 442,47 C 390,-6 338,-33 285,-33 Z"/>
  </g>
  <g id="bullet-char-template-9679" transform="scale(0.00048828125,-0.00048828125)">
   <path d="M 813,0 C 632,0 489,54 383,161 276,268 223,411 223,592 223,773 276,916 383,1023 489,1130 632,1184 813,1184 992,1184 1136,1130 1245,1023 1353,916 1407,772 1407,592 1407,412 1353,268 1245,161 1136,54 992,0 813,0 Z"/>
  </g>
  <g id="bullet-char-template-8226" transform="scale(0.00048828125,-0.00048828125)">
   <path d="M 346,457 C 273,457 209,483 155,535 101,586 74,649 74,723 74,796 101,859 155,911 209,963 273,989 346,989 419,989 480,963 531,910 582,859 608,796 608,723 608,648 583,586 532,535 482,483 420,457 346,457 Z"/>
  </g>
  <g id="bullet-char-template-8211" transform="scale(0.00048828125,-0.00048828125)">
   <path d="M -4,459 L 1135,459 1135,606 -4,606 -4,459 Z"/>
  </g>
  <g id="bullet-char-template-61548" transform="scale(0.00048828125,-0.00048828125)">
   <path d="M 173,740 C 173,903 231,1043 346,1159 462,1274 601,1332 765,1332 928,1332 1067,1274 1183,1159 1299,1043 1357,903 1357,740 1357,577 1299,437 1183,322 1067,206 928,148 765,148 601,148 462,206 346,322 231,437 173,577 173,740 Z"/>
  </g>
 </defs>
 <g class="Page">
  <g class="Group">
   <g class="Group">
    <g class="com.sun.star.drawing.ClosedBezierShape">
     <g id="id3">
      <rect class="BoundingBox" stroke="none" fill="none" x="9177" y="18120" width="2451" height="2452"/>
      <path fill="rgb(178,178,178)" stroke="none" d="M 11626,19345 C 11626,19560 11570,19771 11462,19957 11355,20144 11200,20299 11014,20406 10828,20514 10618,20570 10403,20570 10187,20570 9976,20514 9790,20406 9604,20299 9449,20144 9342,19957 9234,19771 9178,19560 9178,19345 9178,19130 9234,18919 9342,18733 9449,18546 9604,18392 9790,18284 9976,18177 10187,18120 10403,18120 10617,18120 10828,18177 11014,18284 11200,18392 11355,18546 11462,18733 11570,18919 11626,19130 11626,19345 Z"/>
     </g>
    </g>
    <g class="com.sun.star.drawing.ClosedBezierShape">
     <g id="id4">
      <rect class="BoundingBox" stroke="none" fill="none" x="9693" y="9130" width="1435" height="1191"/>
      <path fill="rgb(178,178,178)" stroke="none" d="M 11126,9726 C 11126,9830 11093,9933 11031,10023 10968,10113 10877,10188 10768,10241 10660,10293 10536,10320 10410,10320 10285,10320 10160,10293 10052,10241 9943,10188 9852,10113 9789,10023 9727,9933 9694,9830 9694,9726 9694,9621 9727,9519 9789,9428 9852,9338 9943,9263 10052,9211 10160,9159 10284,9131 10410,9131 10536,9131 10660,9159 10768,9211 10877,9263 10968,9338 11031,9428 11093,9519 11126,9621 11126,9726 Z"/>
     </g>
    </g>
    <g class="com.sun.star.drawing.ClosedBezierShape">
     <g id="id5">
      <rect class="BoundingBox" stroke="none" fill="none" x="5125" y="9819" width="10753" height="9503"/>
      <path fill="rgb(178,178,178)" stroke="none" d="M 15876,18955 L 15876,18224 C 15876,18224 14084,17127 14084,14570 14084,10368 11397,9820 10501,9820 9606,9820 6918,10368 6918,14570 6918,17127 5126,18224 5126,18224 L 5126,18955 5126,18955 C 5126,19018 5143,19082 5174,19138 5206,19193 5250,19239 5305,19271 5360,19303 5422,19320 5485,19320 L 15517,19320 15517,19320 C 15580,19320 15642,19303 15697,19271 15752,19239 15796,19193 15828,19138 15859,19082 15876,19018 15876,18955 Z"/>
     </g>
    </g>
    <g class="com.sun.star.drawing.ClosedBezierShape">
     <g id="id6">
      <rect class="BoundingBox" stroke="none" fill="none" x="4375" y="18295" width="12251" height="1227"/>
      <path fill="rgb(153,153,153)" stroke="none" d="M 4376,18295 L 16624,18295 16624,19112 16624,19112 C 16624,19183 16605,19254 16569,19316 16533,19378 16483,19429 16420,19465 16358,19501 16287,19520 16215,19520 L 4785,19520 4785,19520 C 4713,19520 4642,19501 4580,19465 4517,19429 4467,19378 4431,19316 4395,19254 4376,19183 4376,19112 L 4376,18295 Z"/>
     </g>
    </g>
    <g class="com.sun.star.drawing.ClosedBezierShape">
     <g id="id7">
      <rect class="BoundingBox" stroke="none" fill="none" x="11938" y="10300" width="1840" height="2589"/>
      <path fill="rgb(153,153,153)" stroke="none" d="M 13470,12861 C 13439,12843 13413,12817 13395,12786 13386,12770 13378,12752 13374,12734 13135,11796 12683,11103 12031,10676 12004,10658 11982,10635 11966,10607 11948,10576 11938,10541 11938,10505 11938,10469 11948,10434 11966,10403 11984,10372 12010,10346 12041,10328 12073,10310 12108,10301 12143,10301 12179,10301 12214,10310 12245,10328 12248,10330 12251,10332 12255,10334 12995,10820 13505,11593 13770,12633 13774,12650 13776,12667 13776,12684 13776,12720 13767,12755 13749,12786 13732,12817 13705,12843 13674,12861 13643,12878 13608,12888 13572,12888 L 13572,12888 C 13536,12888 13501,12878 13470,12861 Z"/>
     </g>
    </g>
    <g class="com.sun.star.drawing.PolyPolygonShape">
     <g id="id8">
      <rect class="BoundingBox" stroke="none" fill="none" x="13572" y="13275" width="410" height="410"/>
      <path fill="rgb(153,153,153)" stroke="none" d="M 13572,13276 L 13980,13276 13980,13684 13572,13684 13572,13276 Z"/>
     </g>
    </g>
   </g>
   <g class="com.sun.star.drawing.CustomShape">
    <g id="id9">
     <rect class="BoundingBox" stroke="none" fill="none" x="3000" y="7350" width="15001" height="15001"/>
    </g>
   </g>
  </g>
 </g>
</svg>